<svg width="70" height="72" viewBox="0 0 70 72" fill="none" xmlns="http://www.w3.org/2000/svg">
<path d="M20.4136 0.495058C16.8827 0.499325 14.0212 3.36063 14.0174 6.8915V20.3372L2.93428 27.0536C1.61255 27.8674 0.804968 29.3073 0.799805 30.8601V63.0045C0.804314 67.697 4.60715 71.4997 9.29969 71.5049H60.7002C65.3927 71.4998 69.1953 67.697 69.1998 63.0045V30.8601C69.1947 29.3092 68.3893 27.8706 67.0695 27.0561L56.2729 20.3933C56.2336 20.3694 56.1935 20.3477 56.1522 20.3289L55.9825 20.25V17.4356C55.9825 17.1503 55.8773 16.8754 55.6869 16.6631L41.555 0.908863C41.537 0.888893 41.5175 0.869861 41.4982 0.851172C41.2807 0.623352 40.9793 0.495041 40.6643 0.495041C40.6211 0.495041 40.5772 0.497601 40.534 0.502722L40.5141 0.501015C40.4753 0.496748 40.4372 0.495041 40.3984 0.495041H20.4136L20.4136 0.495058ZM20.4136 2.80747H39.5077V10.5726C39.5115 14.1035 42.3733 16.965 45.9042 16.9696H52.8544L53.6693 17.8784V40.6945L34.9998 52.1035L16.3303 40.6945V6.8915C16.3323 4.6372 18.1593 2.81005 20.4136 2.80747ZM41.8209 4.66935L50.7794 14.6566H45.9042C43.6499 14.6541 41.8235 12.8269 41.8209 10.5726V4.66935ZM34.9889 15.0166C27.9633 15.0166 22.2672 20.7128 22.2672 27.7384C22.2755 34.7614 27.9666 40.4524 34.9889 40.4602C42.0152 40.4602 47.7105 34.7647 47.7105 27.7384C47.7105 20.7128 42.0152 15.0166 34.9889 15.0166ZM34.9889 17.3298C40.7373 17.3298 45.3975 21.99 45.3975 27.7384C45.3975 33.4874 40.7373 38.147 34.9889 38.147C29.2406 38.147 24.5801 33.4874 24.5801 27.7384C24.5866 21.9926 29.2431 17.3369 34.9889 17.3298ZM55.9825 22.9323L65.8586 29.0272C66.4949 29.4189 66.884 30.1121 66.8866 30.8601V32.617L55.9825 39.2811V22.9323ZM14.0174 23.0414V39.2811L3.113 32.617V30.8601C3.11493 30.114 3.50276 29.4216 4.13717 29.0292L14.0174 23.0414ZM39.2349 24.1396C38.9832 24.1488 38.7368 24.2404 38.5371 24.407L33.4276 28.564L31.5911 26.4129C31.3239 26.0941 30.9062 25.9435 30.497 26.0177C30.0885 26.0926 29.7503 26.3806 29.6128 26.7729C29.4753 27.1653 29.5586 27.6009 29.8316 27.9145L32.4016 30.9247C32.8095 31.4023 33.5238 31.4669 34.0111 31.0706L39.9963 26.2011C40.3222 25.9417 40.4837 25.5273 40.4191 25.1162C40.3546 24.705 40.0744 24.3598 39.6846 24.2133C39.5387 24.1581 39.3859 24.134 39.2349 24.1395V24.1396ZM3.113 35.3274L14.3769 42.2116C14.4963 42.3252 14.6375 42.4117 14.793 42.4659L34.3964 54.4454C34.7669 54.6719 35.2329 54.6719 35.6027 54.4454L55.2066 42.4653C55.3621 42.4112 55.5036 42.3247 55.623 42.2111L66.8866 35.3274V63.0045C66.8834 66.4198 64.1155 69.1878 60.7002 69.1917H9.29969C5.88435 69.1874 3.11622 66.4198 3.113 63.0045V35.3274Z" fill="#09A5DB" stroke="#09A5DB" stroke-width="0.5"/>
</svg>
